<?xml version="1.0" standalone="no"?>
<!DOCTYPE svg PUBLIC "-//W3C//DTD SVG 20010904//EN"
 "http://www.w3.org/TR/2001/REC-SVG-20010904/DTD/svg10.dtd">
<svg version="1.0" xmlns="http://www.w3.org/2000/svg"
 width="720.000000pt" height="810.000000pt" viewBox="0 0 720.000000 810.000000"
 preserveAspectRatio="xMidYMid meet">

<g transform="translate(0.000000,810.000000) scale(0.100000,-0.100000)"
fill="#000000" stroke="none">
<path d="M2676 8058 c4 -24 11 -48 16 -55 5 -6 8 -20 6 -30 -3 -16 5 -18 69
-18 39 0 74 3 77 6 13 13 -7 37 -35 43 -17 3 -28 10 -24 16 3 5 -5 21 -19 34
-14 13 -26 28 -26 35 0 6 -16 11 -35 11 l-35 0 6 -42z"/>
<path d="M4178 7942 c-9 -14 -31 -22 -69 -27 -74 -9 -82 -15 -70 -48 7 -18 7
-36 1 -52 -7 -19 -6 -32 4 -48 7 -12 16 -34 20 -49 8 -34 36 -37 73 -8 14 11
36 20 49 20 13 0 24 1 24 3 0 1 -7 20 -15 42 -17 49 -19 147 -3 163 6 6 9 14
6 17 -3 4 -12 -3 -20 -13z"/>
<path d="M4128 7933 c7 -3 16 -2 19 1 4 3 -2 6 -13 5 -11 0 -14 -3 -6 -6z"/>
<path d="M5246 7815 c-15 -8 -37 -15 -47 -15 -20 0 -24 -16 -10 -39 8 -12 18
-7 55 27 48 45 49 51 2 27z"/>
<path d="M4925 7780 c-4 -6 -28 -20 -54 -31 -28 -13 -53 -33 -64 -51 -9 -16
-21 -26 -27 -23 -6 3 -10 -4 -10 -16 0 -12 -16 -37 -36 -55 -19 -19 -33 -38
-29 -44 3 -5 -1 -20 -10 -33 -13 -21 -13 -29 0 -82 21 -80 39 -114 91 -175 24
-28 44 -50 45 -48 0 2 2 26 3 54 2 28 10 73 19 100 9 27 26 81 38 119 13 39
26 74 31 80 4 5 8 27 8 50 1 22 7 68 14 103 11 51 11 62 0 62 -7 0 -16 -5 -19
-10z"/>
<path d="M516 7667 c2 -28 8 -76 14 -106 5 -30 7 -58 4 -63 -3 -4 2 -11 10
-14 9 -3 16 -11 16 -18 0 -17 48 -43 94 -51 l39 -8 -20 29 c-30 43 -143 251
-143 263 0 5 -4 12 -9 15 -4 3 -7 -18 -5 -47z"/>
<path d="M760 7493 c0 -10 4 -24 9 -32 6 -9 9 -5 9 13 0 15 -4 29 -9 32 -5 3
-9 -3 -9 -13z"/>
<path d="M6192 7433 c15 -15 31 -23 35 -19 9 8 -32 46 -50 46 -7 0 1 -12 15
-27z"/>
<path d="M780 7430 c0 -21 29 -41 56 -38 l29 3 -42 21 c-24 12 -43 18 -43 14z"/>
<path d="M6437 7273 c-9 -40 -17 -74 -17 -77 0 -4 14 -6 30 -6 34 0 34 -1 16
90 l-13 65 -16 -72z"/>
<path d="M4423 7057 c-13 -18 -23 -39 -23 -45 0 -7 -18 -32 -39 -55 l-39 -42
81 -1 c70 0 96 -5 175 -36 70 -27 90 -32 77 -18 -9 9 -15 21 -13 26 2 8 -183
204 -193 204 -2 0 -14 -15 -26 -33z"/>
<path d="M6665 7049 c-24 -7 -37 -22 -63 -74 -18 -37 -30 -70 -27 -76 8 -12
105 -12 124 0 8 5 14 24 13 42 0 19 6 41 14 50 14 15 14 18 -3 28 -17 11 -17
12 1 26 19 15 19 15 -5 14 -13 0 -38 -5 -54 -10z"/>
<path d="M2878 7023 c-25 -30 -30 -43 -15 -43 7 0 19 12 26 26 14 32 9 40 -11
17z"/>
<path d="M873 6982 l-52 -26 55 -51 c44 -40 56 -58 61 -90 6 -43 54 -148 82
-180 10 -11 20 -27 23 -35 6 -16 214 -77 225 -66 6 6 -11 100 -50 271 l-22
100 -47 0 c-30 0 -48 4 -48 11 0 6 -15 18 -32 25 -18 7 -46 27 -62 44 -19 19
-31 26 -33 18 -5 -15 -33 -17 -33 -3 0 14 -8 12 -67 -18z"/>
<path d="M3150 6990 c-24 -8 -23 -8 8 -9 20 -1 31 3 27 9 -3 6 -7 10 -8 9 -1
-1 -13 -5 -27 -9z"/>
<path d="M2810 6970 c0 -5 7 -10 15 -10 8 0 15 5 15 10 0 6 -7 10 -15 10 -8 0
-15 -4 -15 -10z"/>
<path d="M3070 6971 c0 -5 9 -7 20 -4 11 3 20 7 20 9 0 2 -9 4 -20 4 -11 0
-20 -4 -20 -9z"/>
<path d="M2790 6950 c0 -5 5 -10 11 -10 5 0 7 5 4 10 -3 6 -8 10 -11 10 -2 0
-4 -4 -4 -10z"/>
<path d="M487 6913 c-3 -2 12 -30 32 -61 71 -107 75 -118 75 -227 1 -74 -4
-111 -17 -144 l-18 -44 58 7 c66 7 188 55 249 99 l41 28 6 110 c7 115 0 148
-38 179 -10 8 -74 18 -168 26 -84 7 -166 17 -184 23 -17 5 -34 7 -36 4z"/>
<path d="M1741 6904 c-2 -19 24 -41 68 -58 24 -9 45 -15 48 -12 2 2 1 20 -2
39 -6 33 -23 42 -41 24 -12 -12 -62 -8 -67 6 -3 6 -6 7 -6 1z m89 -24 c-8 -5
-19 -10 -25 -10 -5 0 -3 5 5 10 8 5 20 10 25 10 6 0 3 -5 -5 -10z"/>
<path d="M2731 6874 c0 -11 3 -14 6 -6 3 7 2 16 -1 19 -3 4 -6 -2 -5 -13z"/>
<path d="M4314 6828 c3 -24 9 -77 12 -118 l6 -75 97 32 c68 23 115 33 161 33
36 0 72 5 80 10 13 9 13 10 0 10 -8 0 -37 17 -65 38 -99 74 -187 112 -263 112
l-34 0 6 -42z"/>
<path d="M3110 6850 c0 -5 4 -10 9 -10 6 0 13 5 16 10 3 6 -1 10 -9 10 -9 0
-16 -4 -16 -10z"/>
<path d="M4196 6700 c-19 -47 -21 -74 -5 -64 7 4 9 0 5 -14 -4 -11 -3 -23 3
-26 5 -3 7 -16 3 -29 -5 -20 -4 -21 14 -7 10 8 20 15 22 16 1 1 -2 14 -8 29
-6 16 -11 52 -11 82 -1 29 -2 53 -4 53 -2 0 -10 -18 -19 -40z"/>
<path d="M2388 6676 l-57 -53 22 -20 c12 -10 42 -32 67 -48 33 -21 41 -23 30
-9 -8 10 -21 24 -28 29 -10 8 -8 23 8 73 12 35 20 68 18 72 -2 5 -29 -15 -60
-44z"/>
<path d="M1 6488 c1 -111 5 -180 9 -163 4 17 8 26 9 21 2 -13 150 147 151 163
1 43 -99 151 -140 151 -5 0 -10 5 -10 10 0 6 -4 10 -10 10 -6 0 -10 -70 -9
-192z"/>
<path d="M5970 6545 l-25 -14 36 -1 c21 0 42 7 49 15 10 13 9 15 -11 15 -13
-1 -35 -7 -49 -15z"/>
<path d="M5570 6485 c0 -5 5 -17 10 -25 5 -8 10 -10 10 -5 0 6 -5 17 -10 25
-5 8 -10 11 -10 5z"/>
<path d="M417 6438 c-19 -50 -19 -54 -2 -37 9 9 15 25 13 35 -5 18 -5 18 -11
2z"/>
<path d="M160 6344 c0 -8 5 -12 10 -9 6 3 10 10 10 16 0 5 -4 9 -10 9 -5 0
-10 -7 -10 -16z"/>
<path d="M297 6301 c-24 -42 -21 -47 8 -13 26 31 30 42 17 42 -4 0 -15 -13
-25 -29z"/>
<path d="M161 6294 c0 -11 3 -14 6 -6 3 7 2 16 -1 19 -3 4 -6 -2 -5 -13z"/>
<path d="M237 6233 c-4 -3 -7 -11 -7 -17 0 -6 5 -5 12 2 6 6 9 14 7 17 -3 3
-9 2 -12 -2z"/>
<path d="M156 6155 c-3 -8 -1 -15 4 -15 6 0 10 7 10 15 0 8 -2 15 -4 15 -2 0
-6 -7 -10 -15z"/>
<path d="M5940 6156 c0 -2 7 -20 15 -39 20 -48 19 -87 -2 -103 -17 -11 -16
-15 13 -51 16 -21 52 -73 79 -115 32 -53 55 -78 67 -78 11 0 16 4 13 10 -3 5
3 27 15 49 11 22 20 48 21 58 1 12 3 10 8 -7 6 -19 10 -5 16 53 4 43 5 81 1
84 -3 3 -31 -3 -63 -15 -60 -22 -73 -21 -73 7 0 10 -16 40 -35 67 -19 27 -40
57 -47 67 -11 15 -28 23 -28 13z"/>
<path d="M5852 6024 c36 -35 71 -64 78 -64 8 0 9 4 3 13 -15 19 -24 49 -13 42
6 -3 10 3 10 14 0 28 -35 48 -95 54 l-49 5 66 -64z"/>
<path d="M2610 5934 c0 -17 -6 -50 -14 -75 -38 -123 -39 -125 -27 -162 26 -76
82 -53 144 58 21 38 44 76 52 85 16 18 21 45 6 36 -5 -4 -19 10 -31 29 -20 33
-26 36 -64 33 -27 -2 -45 2 -53 12 -10 13 -12 10 -13 -16z"/>
<path d="M877 5828 c-47 -46 -74 -85 -102 -143 -20 -44 -39 -83 -42 -87 -2 -4
9 0 26 10 17 9 25 19 19 23 -6 4 -7 12 -3 19 6 9 9 9 16 -1 6 -11 11 -11 21
-1 9 9 9 12 -1 12 -7 0 -3 9 10 19 17 13 26 16 31 8 6 -11 28 31 28 54 0 5 16
41 35 79 19 39 33 70 30 70 -3 0 -33 -28 -68 -62z"/>
<path d="M52 5840 c-12 -16 -22 -33 -22 -38 0 -5 -7 -15 -15 -22 -8 -7 -15
-19 -15 -27 0 -9 19 12 41 46 42 63 50 95 11 41z"/>
<path d="M1626 5665 c4 -8 12 -15 19 -15 7 0 32 -18 55 -39 33 -31 41 -44 36
-63 -4 -16 -1 -13 11 9 20 39 13 49 -51 82 -25 12 -48 26 -51 32 -10 15 -25
10 -19 -6z"/>
<path d="M4072 5650 c0 -14 2 -19 5 -12 2 6 2 18 0 25 -3 6 -5 1 -5 -13z"/>
<path d="M1395 5649 c-11 -17 -2 -18 25 -4 24 14 24 14 3 15 -12 0 -25 -5 -28
-11z"/>
<path d="M500 5632 c0 -13 -80 -99 -80 -87 -1 6 -14 -26 -30 -70 -16 -44 -40
-111 -54 -148 -35 -92 -34 -109 12 -144 46 -36 89 -63 99 -63 4 0 9 12 9 28 3
65 15 184 29 267 17 109 27 225 20 225 -3 0 -5 -4 -5 -8z"/>
<path d="M1478 5633 c7 -3 16 -2 19 1 4 3 -2 6 -13 5 -11 0 -14 -3 -6 -6z"/>
<path d="M4070 5560 c0 -11 -7 -23 -15 -26 -8 -4 -15 -14 -14 -23 0 -10 2 -11
6 -3 2 6 11 12 19 12 9 0 14 11 14 30 0 17 -2 30 -5 30 -3 0 -5 -9 -5 -20z"/>
<path d="M4288 5493 c7 -3 16 -2 19 1 4 3 -2 6 -13 5 -11 0 -14 -3 -6 -6z"/>
<path d="M5881 5410 c0 -34 3 -50 8 -42 6 10 10 3 15 -22 4 -20 5 -40 2 -44
-2 -4 -7 -41 -10 -82 -4 -41 -11 -79 -16 -84 -6 -6 -10 -18 -10 -28 0 -10 -7
-21 -15 -24 -8 -4 -15 -16 -15 -28 0 -11 -5 -28 -11 -36 -8 -12 -10 -9 -6 13
2 15 1 27 -2 27 -3 0 -14 -44 -25 -98 -10 -53 -31 -131 -46 -172 -38 -104
-157 -338 -186 -367 -13 -13 -24 -26 -24 -29 0 -10 89 54 145 105 32 29 91 74
130 99 38 25 64 47 57 50 -7 2 -20 -2 -29 -10 -14 -11 -16 -11 -9 0 7 11 4 12
-12 3 -25 -14 -55 -15 -34 -2 8 4 12 12 10 17 -1 5 26 10 61 12 51 2 72 9 107
33 23 16 46 29 50 29 12 0 188 91 203 105 11 11 8 14 -18 20 -39 8 -130 99
-169 168 -37 66 -116 297 -145 422 -3 11 -5 -5 -6 -35z m-51 -434 c0 -3 -4 -8
-10 -11 -5 -3 -10 -1 -10 4 0 6 5 11 10 11 6 0 10 -2 10 -4z"/>
<path d="M3880 5293 c25 -27 46 -48 48 -47 1 1 -8 21 -20 45 -16 31 -30 45
-48 48 -23 3 -21 -1 20 -46z"/>
<path d="M4091 5268 c0 -16 -5 -28 -11 -28 -17 0 -11 -25 9 -37 17 -11 20 -10
18 6 -1 13 -6 17 -17 13 -13 -5 -13 -3 -2 11 8 9 12 26 9 39 -4 20 -4 20 -6
-4z"/>
<path d="M557 5183 c-13 -27 -27 -60 -31 -75 -5 -23 -3 -28 12 -28 15 0 18 5
14 26 -2 14 0 35 5 47 39 83 38 106 0 30z"/>
<path d="M3941 5225 c2 -5 16 -33 31 -60 14 -28 32 -80 39 -115 7 -36 19 -71
26 -78 16 -17 16 -12 -2 65 -13 57 -63 165 -87 188 -7 7 -9 7 -7 0z"/>
<path d="M3094 4828 l-29 -33 33 29 c30 28 37 36 29 36 -2 0 -16 -15 -33 -32z"/>
<path d="M2165 4821 c-3 -5 -1 -12 5 -16 5 -3 10 1 10 9 0 18 -6 21 -15 7z"/>
<path d="M4230 4814 c0 -6 16 -43 36 -83 62 -126 75 -175 81 -314 6 -134 -3
-222 -36 -330 l-18 -59 21 5 c12 2 61 16 110 31 88 26 176 34 176 17 0 -13
-50 -51 -66 -51 -8 0 -14 -6 -14 -14 0 -8 -10 -18 -22 -22 -19 -6 -13 -10 32
-19 134 -29 261 -74 309 -109 101 -72 138 -86 224 -83 71 2 80 0 95 -21 l18
-23 13 52 c8 29 26 79 41 113 15 34 31 79 34 101 4 22 17 60 28 85 11 25 24
57 28 73 8 26 7 27 -30 27 -22 0 -50 5 -63 11 -30 14 -67 77 -67 115 -1 49
-16 8 -40 -107 -12 -59 -32 -124 -44 -145 -28 -50 -79 -84 -127 -84 -20 0 -44
-2 -52 -6 -8 -3 -28 7 -46 21 -26 23 -31 34 -31 70 0 24 5 47 10 50 6 3 10 17
10 31 0 13 5 24 10 24 6 0 10 7 10 15 0 16 63 82 164 173 32 29 55 56 51 60
-4 4 -10 1 -12 -5 -3 -8 -25 -13 -60 -13 -50 0 -54 2 -42 16 8 10 -10 5 -48
-15 -35 -17 -73 -31 -85 -31 -51 0 -235 52 -287 82 -110 62 -224 185 -266 286
-28 67 -45 96 -45 76z m1014 -838 c-3 -21 -8 -35 -11 -32 -2 2 -1 20 3 40 3
21 8 35 11 32 2 -2 1 -20 -3 -40z"/>
<path d="M3270 4744 c-19 -8 -47 -31 -62 -50 -27 -36 -28 -67 -2 -57 8 3 12 9
9 13 -3 5 8 14 25 22 16 7 30 16 30 20 0 4 7 5 15 2 9 -4 15 0 15 10 0 9 6 16
14 16 8 0 22 3 32 7 14 5 16 2 12 -15 l-6 -22 27 23 c28 22 28 22 7 34 -28 16
-73 15 -116 -3z"/>
<path d="M6860 4701 c0 -5 5 -13 10 -16 6 -3 10 -2 10 4 0 5 -4 13 -10 16 -5
3 -10 2 -10 -4z"/>
<path d="M6915 4640 c22 -18 56 -40 75 -50 20 -10 72 -43 117 -73 45 -30 84
-52 87 -49 3 3 6 48 6 99 l0 95 -127 -3 c-71 -2 -144 1 -163 5 l-35 8 40 -32z"/>
<path d="M3198 4613 c-13 -3 -18 -14 -18 -38 0 -43 12 -72 45 -110 23 -27 25
-27 14 -5 -7 14 -16 28 -22 31 -6 4 -3 19 7 39 9 18 16 41 16 51 0 13 12 20
43 27 l42 10 -55 0 c-30 0 -63 -2 -72 -5z"/>
<path d="M3102 4555 c0 -16 2 -22 5 -12 2 9 2 23 0 30 -3 6 -5 -1 -5 -18z"/>
<path d="M1849 4535 c-20 -7 -61 -29 -90 -48 -30 -19 -79 -43 -109 -52 -30
-10 -64 -21 -75 -26 -11 -4 -35 -11 -53 -14 -44 -9 -33 -21 25 -28 40 -4 57 0
103 24 30 16 67 39 82 52 15 12 50 36 78 52 92 54 100 63 39 40z"/>
<path d="M2108 4308 c-82 -96 -139 -145 -223 -189 -35 -18 -61 -37 -59 -41 7
-12 43 -10 81 4 34 12 58 4 33 -12 -23 -15 2 -12 30 3 30 16 141 12 151 -5 4
-6 35 -15 70 -20 34 -4 70 -15 79 -23 9 -8 28 -15 41 -14 13 0 50 -6 82 -14
62 -16 75 -6 37 28 -11 10 -50 64 -87 119 -37 56 -80 115 -96 132 -16 17 -34
49 -42 70 -7 21 -17 39 -21 40 -5 1 -39 -34 -76 -78z"/>
<path d="M530 4182 c0 -4 11 -17 24 -29 18 -18 29 -20 52 -14 l29 8 -27 12
c-65 26 -78 30 -78 23z"/>
<path d="M1188 4070 c-27 -14 -56 -20 -99 -20 -45 0 -65 -4 -73 -16 -7 -9 -29
-16 -54 -17 -23 -1 -42 -5 -42 -8 0 -3 -20 -27 -45 -53 -43 -46 -58 -86 -34
-86 8 0 8 -4 -1 -15 -6 -8 -9 -19 -5 -24 3 -7 0 -8 -9 -5 -19 7 -21 21 -3 27
7 2 8 8 3 13 -5 5 -11 4 -13 -3 -3 -7 -12 -13 -20 -13 -13 0 -15 -10 -11 -52
3 -29 3 -47 1 -40 -5 14 -33 17 -33 3 0 -5 5 -11 11 -13 6 -2 -1 -19 -15 -41
-35 -52 -19 -46 29 10 72 85 179 185 220 204 22 11 63 33 90 49 28 16 57 30
65 30 8 0 42 14 75 30 33 17 67 30 77 30 9 0 20 5 23 10 3 6 -4 10 -18 10 -14
0 -37 2 -53 5 -19 4 -42 -1 -66 -15z"/>
<path d="M2928 3678 c21 -22 52 -56 70 -75 17 -19 32 -40 32 -47 0 -7 6 -18
13 -25 9 -10 7 -10 -11 0 -12 8 -25 22 -28 31 -3 10 -14 18 -25 18 -11 0 -42
11 -69 25 -27 14 -58 25 -68 25 -19 0 -19 -1 -1 -57 11 -31 19 -63 19 -72 0
-9 14 -38 30 -66 58 -99 68 -128 65 -191 -1 -32 -6 -67 -10 -76 -14 -34 5 -18
24 20 11 21 27 44 35 51 10 8 16 29 16 52 0 47 18 61 26 20 4 -17 10 -29 14
-26 12 7 -14 100 -28 100 -6 0 -21 11 -33 23 -15 17 -24 21 -29 12 -4 -7 -9 3
-12 25 l-4 38 38 -42 39 -41 -5 40 c-7 55 11 51 20 -5 3 -25 9 -45 13 -45 3 0
20 19 36 41 32 44 99 107 189 179 31 25 51 47 44 49 -6 2 -14 -1 -16 -7 -2 -7
-11 -12 -19 -12 -11 0 -14 6 -10 21 4 17 3 19 -6 10 -16 -16 -25 -14 -32 9 -3
11 -13 20 -21 20 -11 0 -14 -6 -10 -20 3 -11 8 -30 11 -42 6 -22 5 -22 -7 -3
-7 11 -24 21 -38 22 -93 8 -144 32 -73 34 l38 1 -35 9 c-19 5 -76 11 -127 13
l-91 3 36 -39z m142 -178 c0 -5 -2 -10 -4 -10 -3 0 -8 5 -11 10 -3 6 -1 10 4
10 6 0 11 -4 11 -10z"/>
<path d="M1065 3577 c-16 -7 -74 -33 -128 -60 -54 -26 -105 -47 -112 -47 -24
0 -27 -20 -10 -47 10 -14 21 -38 24 -51 l7 -26 22 36 c24 38 146 158 162 158
5 0 26 11 46 25 40 27 36 31 -11 12z"/>
<path d="M4730 3492 c-62 -5 -86 -12 -69 -23 17 -11 89 -12 106 -1 21 13 -1
27 -37 24z"/>
<path d="M4489 3365 c18 -8 38 -15 45 -15 19 1 -38 29 -59 29 -14 0 -10 -4 14
-14z"/>
<path d="M4705 3230 c10 -11 20 -20 23 -20 3 0 -3 9 -13 20 -10 11 -20 20 -23
20 -3 0 3 -9 13 -20z"/>
<path d="M3468 3102 c-14 -15 -43 -43 -65 -62 -21 -19 -69 -62 -106 -95 -86
-76 -205 -155 -234 -155 -16 0 -27 -10 -37 -35 -37 -88 -27 -183 34 -313 33
-71 50 -93 158 -206 53 -55 73 -72 69 -55 -3 13 -13 51 -22 84 -32 118 -36
183 -18 290 10 66 25 119 44 155 16 30 29 63 29 73 0 21 122 259 157 305 31
42 26 51 -9 14z"/>
<path d="M2925 3110 c-3 -5 -1 -10 4 -10 6 0 11 5 11 10 0 6 -2 10 -4 10 -3 0
-8 -4 -11 -10z"/>
<path d="M4920 3036 c0 -2 18 -23 40 -47 38 -41 41 -47 36 -89 l-5 -45 13 35
c17 40 20 80 7 80 -4 0 -23 16 -42 35 -30 31 -49 43 -49 31z"/>
<path d="M4099 2989 c-22 -18 -22 -19 -3 -10 12 6 24 7 28 4 3 -3 6 1 6 10 0
22 -3 21 -31 -4z"/>
<path d="M211 2925 c0 -12 -6 -26 -13 -33 -9 -9 -9 -12 0 -12 16 0 25 23 19
47 -4 16 -5 15 -6 -2z"/>
<path d="M5180 2858 c-9 -35 -10 -53 -3 -55 6 -2 9 -26 7 -56 l-3 -52 16 45
c8 25 18 47 22 50 19 13 19 44 1 81 -11 21 -22 39 -24 39 -2 0 -10 -23 -16
-52z"/>
<path d="M6516 2799 c-13 -13 -22 -15 -26 -8 -5 7 -9 5 -13 -5 -4 -9 -18 -16
-34 -16 -16 0 -37 -6 -48 -14 -11 -7 -40 -17 -65 -21 -25 -4 -74 -15 -109 -26
-35 -10 -85 -19 -112 -19 -27 0 -49 -4 -49 -8 0 -10 223 -122 284 -143 34 -12
40 -12 48 1 139 234 164 281 150 279 -4 0 -16 -9 -26 -20z"/>
<path d="M2786 2564 c-10 -25 -39 -68 -65 -97 -76 -86 -111 -135 -111 -156 0
-12 -17 -32 -45 -52 -25 -18 -45 -33 -45 -35 0 -1 26 5 58 14 53 14 63 14 112
-1 30 -9 87 -18 127 -21 l72 -5 -15 42 c-17 45 -28 111 -45 252 -6 50 -14 93
-17 97 -4 4 -16 -13 -26 -38z"/>
<path d="M5296 2526 c-9 -97 -24 -151 -56 -196 -29 -41 -127 -240 -136 -275
-8 -38 -190 -216 -245 -241 -29 -13 -36 -20 -27 -27 9 -6 8 -7 -5 -3 -22 7
-70 -11 -62 -23 3 -5 0 -13 -6 -17 -8 -4 -9 -3 -5 4 4 7 3 12 -2 12 -16 0
-107 -33 -117 -42 -6 -6 -2 -7 10 -2 20 7 20 7 0 -9 -12 -9 -22 -11 -26 -6 -3
6 -11 4 -18 -5 -20 -24 -126 -73 -183 -85 -89 -19 -93 -32 -7 -28 69 4 209 42
306 83 18 7 62 20 99 29 111 26 292 134 387 231 43 45 101 158 117 228 14 65
13 247 -3 366 l-13 95 -8 -89z"/>
<path d="M2610 2580 c0 -5 5 -10 11 -10 5 0 7 5 4 10 -3 6 -8 10 -11 10 -2 0
-4 -4 -4 -10z"/>
<path d="M360 2546 c0 -9 -5 -16 -11 -16 -6 0 -9 -7 -6 -14 4 -10 1 -13 -8
-10 -15 6 -60 -20 -89 -51 -18 -20 -18 -20 -11 5 7 24 6 24 -8 5 -8 -11 -17
-33 -21 -48 -4 -16 -24 -47 -45 -70 -20 -23 -48 -58 -61 -77 -13 -19 -38 -49
-57 -66 -39 -37 -40 -44 -9 -64 13 -8 41 -27 63 -41 38 -26 39 -26 123 -14 47
7 105 20 130 28 25 8 61 15 80 16 19 1 66 9 105 17 38 8 125 18 193 21 67 3
122 8 122 11 0 12 -70 109 -95 132 -15 14 -31 35 -36 48 -12 32 -32 28 -25 -5
19 -99 15 -141 -10 -125 -16 10 -59 99 -73 152 -12 44 -16 46 -104 90 -50 25
-104 56 -119 68 -22 19 -28 21 -28 8z"/>
<path d="M2577 2520 c-9 -11 -14 -20 -10 -20 15 0 -75 -73 -110 -88 -26 -12
-40 -26 -48 -50 -6 -18 -9 -35 -7 -38 6 -5 92 38 96 49 2 4 7 5 12 2 11 -7 39
35 70 102 25 57 24 74 -3 43z"/>
<path d="M2226 2440 c-33 -21 -55 -29 -74 -25 -23 4 -24 4 -7 -4 19 -9 19 -10
-2 -10 -12 -1 -23 -7 -26 -13 -3 -10 -39 -13 -134 -13 l-131 0 57 -24 c31 -14
72 -25 91 -25 37 -1 187 66 227 100 12 11 30 24 40 31 10 6 16 12 12 12 -3 1
-26 -13 -53 -29z"/>
<path d="M5667 2273 c-3 -65 -12 -140 -20 -168 -8 -27 -20 -75 -27 -105 -20
-86 -57 -149 -134 -229 -77 -80 -129 -110 -191 -111 l-40 -1 28 -17 c28 -17
34 -31 17 -48 -5 -5 -6 -15 -2 -21 6 -9 17 -9 47 2 22 7 71 13 108 14 76 0
138 23 200 72 37 30 37 30 37 7 0 -41 -57 -115 -130 -170 -19 -14 -86 -53
-148 -86 -105 -55 -111 -60 -83 -65 16 -3 32 -14 35 -24 6 -19 85 -69 143 -93
28 -10 32 -16 27 -36 -4 -14 -2 -24 5 -24 14 0 20 28 24 113 3 37 7 71 11 74
3 3 6 14 6 24 0 44 44 134 84 170 l41 38 5 133 c7 172 26 216 148 336 46 46
95 90 108 98 l23 16 -27 22 c-15 12 -72 48 -127 80 -55 32 -114 71 -131 87
l-31 30 -6 -118z"/>
<path d="M6117 2044 c-19 -22 -24 -34 -15 -34 14 0 68 50 68 63 0 17 -28 3
-53 -29z"/>
<path d="M935 2040 c-4 -6 -24 -18 -46 -27 -21 -8 -39 -18 -39 -22 0 -8 39
-43 72 -64 15 -9 40 -45 58 -82 l31 -65 -19 -43 c-31 -71 -70 -91 -179 -95
-51 -2 -93 -7 -93 -12 0 -9 41 -54 61 -66 19 -12 92 -102 109 -134 8 -14 13
-52 12 -87 -2 -50 1 -63 13 -63 8 0 15 -7 15 -15 0 -7 6 -18 14 -22 7 -4 19
-18 25 -31 16 -31 43 -62 54 -62 4 0 13 -4 20 -10 7 -5 33 -25 59 -44 l47 -35
6 44 c4 24 4 48 0 54 -3 6 0 11 7 11 12 0 108 202 108 227 0 6 7 16 16 24 8 7
29 41 44 77 20 43 52 87 100 136 69 72 84 93 55 82 -8 -3 -15 -1 -15 4 0 5 9
12 20 15 11 3 20 11 20 16 0 6 4 8 9 5 10 -7 34 19 37 39 3 20 -16 24 -140 35
-99 8 -121 13 -200 50 -93 43 -133 69 -203 132 -43 38 -66 47 -78 28z"/>
<path d="M6020 1963 c-8 -3 -19 -12 -23 -20 -5 -7 -13 -11 -18 -7 -9 5 -44
-64 -36 -72 2 -3 15 12 28 31 13 20 34 38 47 41 12 4 22 12 22 20 0 8 -1 14
-2 13 -2 0 -10 -3 -18 -6z"/>
<path d="M4035 1855 c22 -8 54 -13 70 -13 19 0 7 5 -30 13 -75 17 -92 17 -40
0z"/>
<path d="M2130 1810 c0 -5 7 -10 16 -10 8 0 12 5 9 10 -3 6 -10 10 -16 10 -5
0 -9 -4 -9 -10z"/>
<path d="M5815 1661 c-37 -35 -57 -72 -38 -71 14 1 98 90 85 90 -7 0 -10 5 -7
10 11 17 1 11 -40 -29z m30 0 c-3 -6 -11 -11 -17 -11 -6 0 -6 6 2 15 14 17 26
13 15 -4z"/>
<path d="M5885 1690 c-3 -6 1 -7 9 -4 18 7 21 14 7 14 -6 0 -13 -4 -16 -10z"/>
<path d="M572 1630 c14 -4 31 -11 37 -15 6 -3 11 1 11 9 0 12 -10 16 -37 15
-35 -1 -36 -1 -11 -9z"/>
<path d="M4040 1481 c0 -4 9 -29 21 -55 20 -47 26 -48 60 -20 8 8 39 27 69 43
l53 29 -74 -1 c-41 -1 -86 1 -101 6 -16 4 -28 3 -28 -2z"/>
<path d="M3722 1392 c20 -42 28 -63 34 -97 l8 -40 4 39 c4 44 -13 92 -34 100
-8 3 -13 2 -12 -2z"/>
<path d="M3556 1295 c5 -17 8 -75 7 -130 -1 -84 -6 -115 -33 -195 -33 -101
-83 -199 -133 -265 -65 -85 -245 -243 -295 -259 -12 -4 -22 -11 -22 -15 0 -5
-24 -18 -52 -30 -29 -12 -62 -26 -73 -31 -40 -18 -165 -51 -187 -49 -52 5 -99
-1 -93 -12 5 -7 -12 -8 -54 -3 -51 6 -62 4 -67 -10 -4 -9 -4 -20 0 -23 3 -3
50 -5 104 -4 101 1 218 25 372 74 41 13 125 37 185 52 l110 28 51 61 c54 64
106 146 119 187 8 25 30 56 83 118 17 21 32 45 32 52 1 9 6 7 16 -6 15 -18 15
-10 9 95 -6 90 -12 120 -26 139 -13 17 -19 40 -19 80 0 53 -21 156 -35 170 -4
3 -3 -8 1 -24z"/>
<path d="M2337 1226 c-9 -22 9 -56 28 -56 20 0 19 23 -3 50 -17 21 -19 21 -25
6z"/>
<path d="M5885 1123 c-32 -47 -35 -127 -6 -174 28 -45 105 -124 147 -148 42
-25 43 -36 -8 110 -19 52 -44 105 -56 117 -12 12 -24 33 -28 47 -3 14 -11 25
-16 25 -6 0 -8 14 -6 30 3 17 3 30 2 30 -2 0 -15 -17 -29 -37z"/>
<path d="M5517 1139 c7 -7 15 -10 18 -7 3 3 -2 9 -12 12 -14 6 -15 5 -6 -5z"/>
<path d="M5968 597 l-77 -10 6 -31 c3 -17 14 -56 23 -86 10 -30 21 -72 25 -92
5 -25 13 -38 23 -38 9 0 28 -12 43 -26 21 -20 37 -26 74 -26 26 0 52 5 58 11
6 6 21 11 34 11 13 0 23 5 23 12 0 6 11 1 26 -13 21 -20 16 -6 -28 86 -29 61
-68 130 -86 154 -17 24 -32 48 -32 53 0 9 -4 9 -112 -5z"/>
<path d="M951 518 c-1 -32 -5 -58 -10 -58 -5 0 -11 -23 -15 -51 -4 -28 -15
-71 -25 -96 -16 -42 -19 -45 -29 -27 -10 16 -11 13 -7 -16 4 -23 3 -29 -3 -16
-14 31 -32 -51 -30 -135 l1 -74 6 73 c4 49 11 78 21 85 9 7 24 33 34 60 10 26
22 47 27 47 6 0 16 15 24 33 7 17 23 43 34 56 22 26 22 37 -10 126 l-18 50 0
-57z"/>
<path d="M4788 445 c-9 -21 -9 -29 5 -42 14 -14 20 -15 44 -3 20 9 24 14 13
18 -8 2 -23 12 -33 20 -13 12 -15 17 -5 24 11 6 11 8 0 8 -7 0 -18 -11 -24
-25z"/>
<path d="M5763 358 c7 -21 -48 -167 -98 -261 -25 -49 -44 -91 -41 -94 9 -10
37 6 34 20 -4 18 65 97 85 97 9 0 18 9 22 20 10 30 81 81 115 82 l31 1 -39 41
c-22 23 -52 56 -67 74 -29 32 -50 43 -42 20z"/>
<path d="M4086 158 c-15 -68 -30 -131 -32 -140 -5 -17 6 -18 125 -18 81 0 131
4 131 10 0 6 -4 10 -9 10 -18 0 -161 189 -161 213 0 21 -11 47 -19 47 -4 0
-20 -55 -35 -122z"/>
<path d="M5052 240 c-7 -11 -22 -20 -35 -20 -18 0 -19 -2 -7 -10 8 -5 18 -10
22 -10 10 0 42 49 36 55 -2 2 -9 -5 -16 -15z"/>
<path d="M1446 104 c-9 -24 -7 -50 6 -79 11 -24 14 -25 102 -25 84 1 89 2 61
14 -16 7 -60 34 -96 60 -55 38 -68 43 -73 30z"/>
<path d="M295 60 c-18 -19 -18 -20 3 -20 13 0 22 -8 25 -22 3 -18 5 -16 5 7 2
46 -11 60 -33 35z"/>
<path d="M250 30 c0 -5 5 -10 10 -10 6 0 10 5 10 10 0 6 -4 10 -10 10 -5 0
-10 -4 -10 -10z"/>
</g>
</svg>
